<svg width="375" height="476" viewBox="0 0 375 476" fill="none" xmlns="http://www.w3.org/2000/svg">
<path d="M376.007 30.9404C372.947 30.9376 369.951 31.8457 367.373 33.5573C364.795 35.2688 362.743 37.7121 361.462 40.5974C360.18 43.4826 359.722 46.689 360.141 49.8365C360.56 52.984 361.84 55.9405 363.828 58.3559L374.416 71.9957C371.466 72.6486 368.777 74.2187 366.706 76.4973C364.636 78.7759 363.283 81.6549 362.827 84.7515C358.965 86.2475 355.555 88.7816 352.946 92.0949C351.124 89.7001 348.827 87.7403 346.211 86.3481C343.596 84.9559 340.723 84.1638 337.787 84.0258C334.85 83.8878 331.92 84.407 329.194 85.5481C326.468 86.6893 324.01 88.4258 321.987 90.6398C319.533 87.8049 316.41 85.684 312.925 84.4865C309.44 83.289 305.714 83.0564 302.116 83.8118C298.518 84.5671 295.172 86.2842 292.409 88.7934C289.646 91.3026 287.561 94.5171 286.36 98.1193L285.45 98.1193C287.386 93.5305 287.7 88.3796 286.338 83.5738C284.976 78.7679 282.024 74.6155 278.002 71.8478C273.981 69.0802 269.148 67.8748 264.355 68.4442C259.562 69.0135 255.116 71.3211 251.8 74.9603C249.236 71.9981 245.943 69.8181 242.274 68.6544C238.606 67.4908 234.701 67.3877 230.981 68.3562C227.26 69.3247 223.864 71.3282 221.159 74.1511C218.453 76.974 216.539 80.5096 215.623 84.3775C213.046 83.4113 210.296 83.0404 207.566 83.2906C204.836 83.5407 202.192 84.4058 199.817 85.8258C197.915 82.9423 195.103 80.8382 191.868 79.8763L202.619 66.4677C202.848 66.2025 203.064 65.9305 203.274 65.6517C205.77 62.34 206.941 58.1571 206.545 53.9718C206.148 49.7866 204.214 45.9209 201.145 43.1778C198.075 40.4348 194.105 39.0253 190.061 39.2422C186.016 39.459 182.208 41.2855 179.427 44.3422C176.591 40.9992 172.595 38.9601 168.314 38.6718C164.033 38.3836 159.816 39.8697 156.589 42.8046C153.361 45.7394 151.386 49.8834 151.096 54.328C150.806 58.7727 152.225 63.1553 155.042 66.5153L164.7 78.9584C161.802 79.304 159.066 80.5286 156.834 82.4791C154.601 84.4295 152.972 87.0196 152.148 89.9259C150.299 90.9071 148.625 92.2086 147.198 93.7744C145.269 91.5498 142.877 89.8105 140.205 88.6884C141.945 83.6335 141.96 78.1108 140.245 73.0463C138.53 67.9817 135.191 63.6833 130.787 60.8715C126.383 58.0597 121.182 56.9056 116.056 57.6026C110.931 58.2996 106.191 60.8054 102.633 64.6999C99.4948 61.0807 95.3741 58.534 90.8141 57.3958C86.2542 56.2576 81.4691 56.5814 77.0898 58.3242C72.7106 60.0671 68.9429 63.1473 66.2835 67.1586C63.6241 71.17 62.1979 75.9242 62.1931 80.7942C62.1931 81.1274 62.1931 81.4743 62.1931 81.7802C59.7497 80.6339 57.0996 80.0401 54.4184 80.0384C51.7373 80.0367 49.0864 80.627 46.6417 81.7703C44.197 82.9136 42.0144 84.5836 40.2387 86.6696C38.463 88.7556 37.1347 91.2099 36.342 93.8696C34.6337 91.9667 32.5679 90.4475 30.2722 89.4059C27.9765 88.3643 25.4996 87.8223 22.9943 87.8134C20.489 87.8045 18.0086 88.3288 15.7061 89.3541C13.4036 90.3793 11.3278 91.8837 9.60698 93.7744C7.89602 91.7992 5.81662 90.2054 3.49487 89.0895C1.17311 87.9735 -1.34268 87.3588 -3.90001 87.2825C-6.45735 87.2062 -9.00295 87.67 -11.3826 88.6456C-13.7622 89.6213 -15.9263 91.0885 -17.7436 92.9584C-18.5743 90.5601 -19.8595 88.359 -21.5233 86.4852C-23.1871 84.6114 -25.1956 83.1029 -27.4303 82.0488C-29.665 80.9947 -32.0805 80.4164 -34.5341 80.348C-36.9877 80.2797 -39.4295 80.7227 -41.7154 81.651C-42.4033 79.1753 -43.5541 76.8646 -45.1019 74.8508C-46.6498 72.837 -48.5645 71.1595 -50.7367 69.9141C-52.9089 68.6687 -55.296 67.8798 -57.7618 67.5923C-60.2276 67.3049 -62.7238 67.5247 -65.1078 68.239C-67.4918 68.9533 -69.717 70.1482 -71.6563 71.7556C-73.5956 73.3629 -75.211 75.3512 -76.4103 77.6069C-77.6097 79.8625 -78.3694 82.3413 -78.6462 84.9019C-78.923 87.4624 -78.7114 90.0545 -78.0235 92.5301L-75.6204 102.784L-75.6204 544.678L458.838 544.678L458.838 121.543L464.692 90.6262C464.764 90.3066 464.823 89.9871 464.875 89.6676C465.522 85.8528 464.719 81.9262 462.634 78.714C460.55 75.5018 457.347 73.2545 453.699 72.4449C450.051 71.6354 446.243 72.3267 443.077 74.3734C439.91 76.4202 437.631 79.6627 436.719 83.4187C433.56 82.2653 430.118 82.2543 426.952 83.3873C423.785 84.5203 421.08 86.731 419.276 89.6607C417.516 88.0684 415.527 86.77 413.383 85.8122C413.089 82.2049 411.546 78.8306 409.039 76.3149C406.532 73.7993 403.232 72.3129 399.75 72.1316L410.836 58.3083C411.058 58.0499 411.274 57.7779 411.49 57.4992C414.073 54.2388 415.324 50.0583 414.976 45.8522C414.627 41.6462 412.708 37.7489 409.627 34.9942C406.546 32.2395 402.55 30.8464 398.492 31.113C394.435 31.3796 390.64 33.2849 387.918 36.4209C386.415 34.6898 384.577 33.307 382.525 32.3628C380.473 31.4185 378.252 30.9338 376.007 30.9404Z" fill="url(#paint0_linear_207_79)"/>
<path d="M315.354 43.2902C313.14 43.2859 310.97 43.9184 309.104 45.1125C307.237 46.3066 305.752 48.0122 304.825 50.0267C303.897 52.0412 303.567 54.28 303.872 56.4772C304.177 58.6744 305.106 60.7376 306.547 62.4219L323.251 83.1865L340.537 62.389C340.701 62.2054 340.858 62.0152 341.009 61.825C342.737 59.5389 343.53 56.6791 343.228 53.8277C342.925 50.9763 341.549 48.3476 339.38 46.4765C337.211 44.6054 334.411 43.6325 331.551 43.7558C328.691 43.8791 325.985 45.0893 323.984 47.1402C322.898 45.9258 321.567 44.955 320.08 44.2916C318.593 43.6281 316.982 43.2869 315.354 43.2902Z" fill="url(#paint1_linear_207_79)"/>
<path d="M240.592 15.4994C237.766 15.4958 234.998 16.3042 232.617 17.8288C230.236 19.3533 228.341 21.53 227.157 24.1006C225.974 26.6713 225.551 29.528 225.94 32.3319C226.328 35.1359 227.511 37.7694 229.349 39.9201L250.671 66.4293L272.775 39.8783C272.978 39.6449 273.182 39.4055 273.373 39.1602C275.65 36.2456 276.719 32.5643 276.357 28.8811C275.995 25.1978 274.231 21.7957 271.43 19.3816C268.629 16.9675 265.007 15.727 261.317 15.9178C257.627 16.1087 254.152 17.7161 251.615 20.4063C250.226 18.8572 248.526 17.6194 246.627 16.7738C244.727 15.9282 242.671 15.494 240.592 15.4994Z" fill="url(#paint2_linear_207_79)"/>
<path d="M26.3368 49.5539C26.5005 49.3702 26.6577 49.1735 26.8148 48.9767C28.6465 46.6446 29.5089 43.6944 29.2223 40.7411C28.9356 37.7877 27.522 35.0591 25.2761 33.1241C23.0302 31.1892 20.1254 30.1971 17.1671 30.3547C14.2089 30.5124 11.4256 31.8077 9.39743 33.9705C7.32999 31.6057 4.40934 30.1604 1.27802 29.9525C-1.8533 29.7446 -4.93878 30.7912 -7.2997 32.862C-9.66062 34.9329 -11.1036 37.8583 -11.3111 40.9948C-11.5186 44.1312 -10.4737 47.2218 -8.4063 49.5866L8.66407 70.8104L26.3368 49.5539Z" fill="url(#paint3_linear_207_79)"/>
<path d="M186.655 0.404125C185.316 0.40357 184.005 0.787464 182.877 1.51034C181.749 2.23321 180.851 3.26478 180.29 4.48287C179.729 5.70096 179.529 7.05458 179.712 8.38332C179.896 9.71207 180.456 10.9603 181.325 11.9802L191.455 24.5532L201.932 11.9606L202.213 11.6195C203.308 10.2389 203.826 8.48737 203.659 6.73237C203.493 4.97736 202.654 3.35515 201.32 2.20583C199.985 1.05652 198.258 0.469341 196.501 0.567531C194.743 0.665721 193.092 1.44162 191.894 2.73248C191.235 1.9955 190.427 1.40689 189.524 1.00555C188.621 0.604205 187.643 0.399219 186.655 0.404125Z" fill="url(#paint4_linear_207_79)"/>
<path d="M195.799 54.8859C193.272 54.8849 190.798 55.6093 188.669 56.9733C186.541 58.3373 184.847 60.2838 183.788 62.5823C182.73 64.8808 182.352 67.435 182.698 69.9422C183.044 72.4495 184.1 74.8048 185.742 76.7293L204.856 100.454L224.625 76.6923L225.156 76.0487C227.221 73.4435 228.199 70.1386 227.885 66.827C227.57 63.5154 225.988 60.4543 223.47 58.2856C220.952 56.1169 217.693 55.009 214.377 55.1942C211.061 55.3795 207.945 56.8436 205.684 59.2794C204.44 57.8888 202.916 56.7781 201.212 56.0208C199.508 55.2635 197.663 54.8767 195.799 54.8859Z" fill="url(#paint5_linear_207_79)"/>
<path d="M119.199 22.0402L119.677 21.463C121.482 19.128 122.323 16.1882 122.026 13.2501C121.73 10.3121 120.319 7.60012 118.084 5.67398C115.849 3.74783 112.962 2.75451 110.017 2.89896C107.073 3.04341 104.296 4.31461 102.26 6.45026C100.166 4.17716 97.2695 2.81302 94.1866 2.64869C91.1037 2.48435 88.0786 3.53288 85.7564 5.57062C83.4342 7.60836 81.9985 10.4741 81.7556 13.5569C81.5126 16.6397 82.4816 19.6956 84.4559 22.073L101.526 43.2903L119.199 22.0402Z" fill="url(#paint6_linear_207_79)"/>
<path d="M64.0396 33.0325C65.0862 31.677 65.5735 29.9709 65.4012 28.266C65.2289 26.5612 64.41 24.9876 63.1134 23.8697C61.8168 22.7518 60.1414 22.1749 58.4326 22.258C56.7239 22.341 55.1121 23.0777 53.9296 24.3161C52.7117 23.0059 51.0323 22.2221 49.2474 22.1311C47.4624 22.04 45.7122 22.6488 44.3677 23.8283C43.0233 25.0078 42.1902 26.6654 42.0451 28.4497C41.9 30.234 42.4543 32.0048 43.5905 33.3867L53.504 45.7104L63.7646 33.367L64.0396 33.0325Z" fill="url(#paint7_linear_207_79)"/>
<path d="M350.314 25.1239C351.36 23.7684 351.847 22.0623 351.675 20.3574C351.503 18.6526 350.684 17.079 349.387 15.9611C348.091 14.8432 346.415 14.2663 344.707 14.3494C342.998 14.4324 341.386 15.1691 340.204 16.4074C338.992 15.07 337.304 14.2628 335.504 14.1597C333.704 14.0566 331.936 14.6658 330.58 15.8562C329.224 17.0466 328.389 18.7229 328.256 20.5238C328.122 22.3248 328.7 24.1062 329.864 25.4846L339.778 37.8083L350.032 25.465L350.314 25.1305L350.314 25.1239Z" fill="url(#paint8_linear_207_79)"/>
<defs>
<linearGradient id="paint0_linear_207_79" x1="166.35" y1="31.3994" x2="170.366" y2="1175.89" gradientUnits="userSpaceOnUse">
<stop stop-color="#FF0034"/>
<stop offset="1" stop-color="#FF0034"/>
</linearGradient>
<linearGradient id="paint1_linear_207_79" x1="321.577" y1="43.3314" x2="322.023" y2="146.088" gradientUnits="userSpaceOnUse">
<stop stop-color="#FF0034"/>
<stop offset="1" stop-color="#FF0034" stop-opacity="0"/>
</linearGradient>
<linearGradient id="paint2_linear_207_79" x1="248.617" y1="15.552" x2="249.183" y2="146.726" gradientUnits="userSpaceOnUse">
<stop stop-color="#FF0034"/>
<stop offset="1" stop-color="#FF0034" stop-opacity="0"/>
</linearGradient>
<linearGradient id="paint3_linear_207_79" x1="6.96722" y1="29.9688" x2="7.42243" y2="135.269" gradientUnits="userSpaceOnUse">
<stop stop-color="#FF0034"/>
<stop offset="1" stop-color="#FF0034" stop-opacity="0"/>
</linearGradient>
<linearGradient id="paint4_linear_207_79" x1="190.483" y1="0.428985" x2="190.751" y2="62.627" gradientUnits="userSpaceOnUse">
<stop stop-color="#FF0034"/>
<stop offset="1" stop-color="#FF0034" stop-opacity="0"/>
</linearGradient>
<linearGradient id="paint5_linear_207_79" x1="203.021" y1="54.9328" x2="203.527" y2="172.297" gradientUnits="userSpaceOnUse">
<stop stop-color="#FF0034"/>
<stop offset="1" stop-color="#FF0034" stop-opacity="0"/>
</linearGradient>
<linearGradient id="paint6_linear_207_79" x1="99.9115" y1="2.67391" x2="100.365" y2="107.393" gradientUnits="userSpaceOnUse">
<stop stop-color="#FF0034"/>
<stop offset="1" stop-color="#FF0034" stop-opacity="0"/>
</linearGradient>
<linearGradient id="paint7_linear_207_79" x1="52.5744" y1="22.1465" x2="52.8373" y2="82.9001" gradientUnits="userSpaceOnUse">
<stop stop-color="#FF0034"/>
<stop offset="1" stop-color="#FF0034" stop-opacity="0"/>
</linearGradient>
<linearGradient id="paint8_linear_207_79" x1="338.816" y1="14.1729" x2="339.079" y2="75.1109" gradientUnits="userSpaceOnUse">
<stop stop-color="#FF0034"/>
<stop offset="1" stop-color="#FF0034" stop-opacity="0"/>
</linearGradient>
</defs>
</svg>
