<svg width="892" height="530" viewBox="0 0 892 530" fill="none" xmlns="http://www.w3.org/2000/svg">
<rect y="530" width="459" height="892" transform="rotate(-90 0 530)" fill="#FF0034"/>
<path d="M571 56.5C549 59 530.166 59.6984 509.142 63.0345C422.776 76.7098 391.024 48.1937 308.4 41.2301C185.089 30.8393 143.44 84.8864 61.5609 45.9902C32.1678 32.0293 11.8527 12.8646 0 0L5.05439e-09 81L571 81L571 56.5Z" fill="#FF0034"/>
<path d="M892 46.9921C871.866 54.0773 851.166 59.3183 830.142 62.6543C743.776 76.3295 712.024 47.8135 629.4 40.85C506.089 30.4592 518.879 119.516 437 80.6197C407.607 66.6589 332.853 69.4842 321 56.6198V80.6198L892 80.6198L892 46.9921Z" fill="#FF0034"/>
</svg>
