<svg width="892" height="960" viewBox="0 0 892 960" fill="none" xmlns="http://www.w3.org/2000/svg">
<g clip-path="url(#clip0_258_1204)">
<path d="M709.508 1026.22C696.65 988.668 687.139 950.061 681.085 910.847C656.267 749.763 708.017 690.539 720.655 536.433C739.512 306.44 641.428 228.759 712.016 76.0425C737.352 21.2199 772.132 -16.6708 795.478 -38.7778L648.481 -38.7778L648.481 1026.22L709.508 1026.22Z" fill="#FF0034" fill-opacity="0.39"/>
<path d="M702.102 1026.22C689.244 988.668 679.733 950.061 673.678 910.847C648.861 749.763 700.611 690.539 713.248 536.433C732.106 306.44 634.022 228.759 704.61 76.0425C729.946 21.2199 764.726 -16.6708 788.072 -38.7778L641.075 -38.7778L641.075 1026.22L702.102 1026.22Z" fill="#FF0034" fill-opacity="0.5"/>
<rect x="-6.37439" y="-10.2217" width="647.449" height="989.991" fill="#FF0034"/>
<path d="M692.102 1026.22C679.244 988.668 669.732 950.061 663.678 910.847C638.861 749.763 690.611 690.539 703.248 536.433C722.105 306.44 624.022 228.759 694.61 76.0425C719.946 21.2199 754.726 -16.6708 778.072 -38.7778L631.075 -38.7778L631.075 1026.22L692.102 1026.22Z" fill="#FF0034"/>
</g>
<defs>
<clipPath id="clip0_258_1204">
<rect width="980" height="1028" fill="white" transform="translate(-88 -29)"/>
</clipPath>
</defs>
</svg>
