<svg width="48" height="49" viewBox="0 0 48 49" fill="none" xmlns="http://www.w3.org/2000/svg">
<path d="M23.5181 42.4844C33.2521 42.4844 41.1431 34.4255 41.1431 24.4844C41.1431 14.5432 33.2521 6.48438 23.5181 6.48438C13.784 6.48438 5.89307 14.5432 5.89307 24.4844C5.89307 34.4255 13.784 42.4844 23.5181 42.4844Z" stroke="white" stroke-width="2" stroke-linecap="round" stroke-linejoin="round"/>
<path d="M33.7337 39.1489C31.2237 36.286 27.5767 34.4844 23.5178 34.4844C19.4588 34.4844 15.8119 36.286 13.3019 39.1489" stroke="white" stroke-width="2" stroke-linecap="round" stroke-linejoin="round"/>
<path d="M23.5181 28.4844C26.7627 28.4844 29.3931 25.7981 29.3931 22.4844C29.3931 19.1707 26.7627 16.4844 23.5181 16.4844C20.2734 16.4844 17.6431 19.1707 17.6431 22.4844C17.6431 25.7981 20.2734 28.4844 23.5181 28.4844Z" fill="white" stroke="white" stroke-width="2" stroke-linecap="round" stroke-linejoin="round"/>
<path d="M32.1002 38.9004C31.5804 38.6878 30.9598 38.9632 30.4386 38.7678C29.9021 38.5666 29.3461 38.3282 28.8328 38.0766C28.5272 37.9267 28.2384 37.7526 27.9601 37.5495C27.3107 37.0754 26.7693 36.5033 25.9424 36.4114C25.476 36.3596 25.003 36.3242 24.5321 36.3242C23.8893 36.3242 23.2734 36.1472 22.6349 36.106C22.3605 36.0883 22.0806 36.1043 21.8058 36.1043C21.587 36.1043 21.3603 36.0873 21.1426 36.1112C20.9793 36.1292 20.8322 36.2009 20.673 36.2317C20.4258 36.2795 20.1786 36.372 19.94 36.4516C19.7376 36.5191 19.5662 36.6378 19.3692 36.7082C19.09 36.8079 18.7861 36.9866 18.5454 37.1585C18.0209 37.5331 17.5364 37.984 16.985 38.3209C16.6779 38.5086 16.3449 38.6857 16.0774 38.9318C15.9805 39.021 15.828 39.0694 15.744 39.164C15.6943 39.2199 15.8927 39.1826 15.9674 39.1866C16.3288 39.2062 16.6884 39.2787 17.0443 39.3402C18.447 39.5828 19.8177 39.9634 21.2473 40C21.9476 40.018 22.6195 40.1633 23.3104 40.2356C24.3115 40.3404 25.3138 40.4717 26.3194 40.5097C27.0522 40.5373 27.7782 40.5655 28.5117 40.5655C28.7017 40.5655 28.8325 40.4472 28.9585 40.3142C29.2252 40.0327 28.8255 39.6366 28.5954 39.5008C28.0238 39.1635 27.2362 39.0833 26.5952 38.9493C25.8088 38.7848 25.0139 38.5629 24.2092 38.5216C23.2397 38.4719 22.2451 38.3691 21.2962 38.1673C20.897 38.0825 20.4937 38.0521 20.0744 38.0521C19.1655 38.0521 18.2844 38.2525 17.3795 38.3035C17.0886 38.3199 16.8138 38.3982 16.5277 38.4466C16.2438 38.4946 15.9509 38.5425 15.6724 38.6176C15.5908 38.6397 15.4937 38.6494 15.4176 38.6875C15.2833 38.7546 15.0985 38.7769 14.9778 38.855C14.8828 38.9165 15.1829 38.956 15.2937 38.9789C15.5477 39.0316 15.8048 39.0698 16.0599 39.1168C16.1915 39.1411 16.315 39.1517 16.4474 39.1517C16.7011 39.1517 16.9547 39.1517 17.2084 39.1517" stroke="white" stroke-width="3" stroke-linecap="round"/>
</svg>
