<svg width="935" height="960" viewBox="0 0 935 960" fill="none" xmlns="http://www.w3.org/2000/svg">
<mask id="mask0_143_416" style="mask-type:luminance" maskUnits="userSpaceOnUse" x="-36" y="-26" width="1621" height="1079">
<path d="M1584.13 -25.2303H-35.7302V1052.46H1584.13V-25.2303Z" fill="white"/>
</mask>
<g mask="url(#mask0_143_416)">
<path d="M836.81 901.432C836.815 895.137 835.013 888.972 831.617 883.668C828.22 878.364 823.372 874.144 817.646 871.507C811.92 868.87 805.558 867.927 799.311 868.79C793.065 869.653 787.198 872.285 782.405 876.376L755.338 898.158C754.042 892.088 750.926 886.556 746.404 882.297C741.883 878.037 736.169 875.253 730.024 874.315C727.056 866.37 722.027 859.355 715.452 853.987C720.204 850.238 724.093 845.513 726.856 840.132C729.619 834.751 731.19 828.84 731.464 822.8C731.738 816.759 730.708 810.73 728.443 805.122C726.179 799.514 722.733 794.457 718.339 790.295C723.965 785.247 728.174 778.82 730.55 771.651C732.927 764.481 733.388 756.817 731.889 749.415C730.39 742.013 726.983 735.129 722.003 729.444C717.024 723.759 710.645 719.469 703.497 716.999V715.127C712.603 719.11 722.825 719.757 732.362 716.954C741.899 714.151 750.139 708.078 755.631 699.805C761.123 691.532 763.515 681.589 762.385 671.728C761.256 661.867 756.676 652.72 749.455 645.899C755.333 640.623 759.659 633.848 761.968 626.301C764.277 618.754 764.482 610.721 762.56 603.067C760.638 595.412 756.662 588.426 751.06 582.859C745.458 577.292 738.442 573.355 730.766 571.471C732.684 566.168 733.42 560.511 732.924 554.895C732.427 549.279 730.71 543.838 727.892 538.952C733.615 535.039 737.79 529.255 739.699 522.598L766.308 544.718C766.834 545.189 767.374 545.634 767.927 546.065C774.499 551.2 782.8 553.61 791.105 552.794C799.41 551.978 807.082 547.999 812.525 541.684C817.969 535.368 820.766 527.202 820.336 518.881C819.905 510.561 816.281 502.725 810.215 497.003C816.849 491.17 820.895 482.948 821.467 474.14C822.039 465.333 819.09 456.658 813.266 450.018C807.442 443.378 799.218 439.315 790.398 438.718C781.578 438.122 772.881 441.041 766.213 446.837L741.521 466.707C740.835 460.744 738.405 455.115 734.534 450.522C730.663 445.929 725.523 442.577 719.756 440.882C717.809 437.079 715.226 433.635 712.119 430.698C716.533 426.73 719.985 421.81 722.212 416.311C732.243 419.892 743.202 419.922 753.253 416.394C763.303 412.867 771.833 405.997 777.413 396.937C782.993 387.877 785.283 377.177 783.9 366.631C782.517 356.085 777.544 346.335 769.816 339.014C776.998 332.558 782.052 324.081 784.31 314.699C786.569 305.318 785.927 295.474 782.468 286.464C779.009 277.455 772.897 269.703 764.937 264.232C756.976 258.761 747.542 255.827 737.877 255.817C737.216 255.817 736.528 255.817 735.921 255.817C738.196 250.79 739.374 245.338 739.377 239.822C739.381 234.306 738.209 228.852 735.94 223.823C733.672 218.793 730.357 214.303 726.218 210.65C722.078 206.996 717.208 204.264 711.93 202.633C715.706 199.118 718.721 194.868 720.788 190.145C722.855 185.423 723.93 180.327 723.948 175.173C723.966 170.018 722.925 164.915 720.891 160.178C718.856 155.441 715.871 151.171 712.119 147.631C716.039 144.111 719.201 139.833 721.416 135.056C723.63 130.279 724.85 125.104 725.002 119.842C725.153 114.581 724.233 109.344 722.297 104.448C720.36 99.5529 717.449 95.1007 713.738 91.3619C718.497 89.6528 722.865 87.0087 726.584 83.5858C730.302 80.1629 733.296 76.0306 735.388 71.4332C737.48 66.8357 738.627 61.8662 738.763 56.8185C738.898 51.7707 738.019 46.7471 736.177 42.0443C741.09 40.629 745.675 38.2616 749.672 35.0771C753.668 31.8927 756.997 27.9535 759.468 23.4847C761.94 19.0158 763.506 14.1047 764.076 9.03181C764.646 3.95888 764.21 -1.17654 762.793 -6.08122C761.375 -10.9859 759.004 -15.5638 755.814 -19.5535C752.624 -23.5433 748.679 -26.8667 744.203 -29.3341C739.726 -31.8015 734.807 -33.3646 729.726 -33.9341C724.645 -34.5035 719.501 -34.0681 714.588 -32.6529L694.24 -27.709H-45.0001V1071.84H657.012L718.366 1083.88C719 1084.03 719.634 1084.15 720.269 1084.26C727.839 1085.59 735.631 1083.94 742.005 1079.65C748.38 1075.36 752.84 1068.77 754.446 1061.27C756.053 1053.76 754.681 1045.93 750.619 1039.41C746.557 1032.9 740.123 1028.21 732.669 1026.34C734.958 1019.84 734.98 1012.75 732.731 1006.24C730.483 999.726 726.096 994.161 720.282 990.449C723.442 986.827 726.019 982.737 727.919 978.325C735.078 977.721 741.774 974.546 746.766 969.388C751.758 964.231 754.708 957.441 755.068 950.278L782.499 973.085C783.012 973.543 783.552 973.987 784.105 974.432C790.575 979.745 798.871 982.318 807.218 981.602C815.565 980.885 823.299 976.936 828.765 970.598C834.232 964.26 836.996 956.038 836.467 947.691C835.938 939.344 832.157 931.535 825.934 925.936C829.369 922.843 832.113 919.063 833.987 914.841C835.861 910.619 836.823 906.05 836.81 901.432Z" fill="url(#paint0_linear_143_416)"/>
<path d="M811.402 776.649C811.411 772.093 810.11 767.63 807.653 763.79C805.196 759.95 801.687 756.894 797.543 754.987C793.398 753.079 788.793 752.399 784.272 753.027C779.752 753.655 775.507 755.565 772.042 758.531L729.323 792.895L772.11 828.459C772.488 828.796 772.879 829.119 773.27 829.429C777.973 832.984 783.857 834.616 789.723 833.994C795.589 833.371 800.997 830.54 804.847 826.077C808.696 821.615 810.698 815.855 810.444 809.971C810.191 804.087 807.701 798.52 803.482 794.404C805.98 792.169 807.977 789.431 809.342 786.372C810.707 783.312 811.409 779.999 811.402 776.649Z" fill="url(#paint1_linear_143_416)"/>
<path d="M868.577 622.84C868.584 617.026 866.921 611.332 863.785 606.432C860.648 601.533 856.17 597.635 850.881 595.2C845.593 592.765 839.716 591.896 833.947 592.695C828.178 593.494 822.76 595.929 818.336 599.709L763.798 643.575L818.422 689.051C818.902 689.469 819.394 689.887 819.899 690.28C825.895 694.965 833.469 697.164 841.046 696.42C848.624 695.675 855.623 692.045 860.59 686.283C865.556 680.521 868.108 673.07 867.716 665.478C867.323 657.887 864.016 650.738 858.482 645.517C861.669 642.66 864.215 639.163 865.955 635.255C867.695 631.347 868.588 627.117 868.577 622.84Z" fill="url(#paint2_linear_143_416)"/>
<path d="M798.516 182.049C798.894 182.386 799.298 182.709 799.703 183.033C804.501 186.801 810.571 188.575 816.647 187.985C822.723 187.396 828.336 184.487 832.317 179.867C836.298 175.246 838.339 169.27 838.015 163.184C837.69 157.098 835.025 151.372 830.576 147.2C835.441 142.946 838.414 136.937 838.842 130.495C839.27 124.053 837.117 117.705 832.856 112.848C828.596 107.991 822.577 105.023 816.125 104.596C809.672 104.169 803.314 106.318 798.449 110.572L754.784 145.691L798.516 182.049Z" fill="url(#paint3_linear_143_416)"/>
<path d="M763.177 81.1634C763.555 81.5002 763.96 81.8234 764.365 82.1467C769.162 85.9152 775.232 87.6894 781.308 87.0997C787.384 86.5099 792.997 83.6017 796.978 78.9812C800.959 74.3607 803 68.3844 802.676 62.2984C802.352 56.2124 799.687 50.4863 795.237 46.3137C800.102 42.0603 803.076 36.0516 803.503 29.6095C803.931 23.1674 801.778 16.8196 797.518 11.9624C793.257 7.10529 787.239 4.13671 780.786 3.70976C774.333 3.28282 767.975 5.43247 763.11 9.68583L719.446 44.8049L763.177 81.1634Z" fill="url(#paint4_linear_143_416)"/>
<path d="M899.633 511.875C899.634 509.12 898.844 506.422 897.357 504.101C895.87 501.781 893.748 499.934 891.242 498.78C888.736 497.626 885.951 497.214 883.217 497.591C880.483 497.968 877.916 499.12 875.817 500.91L849.951 521.749L875.858 543.303L876.559 543.883C879.4 546.134 883.003 547.2 886.614 546.858C890.224 546.515 893.562 544.79 895.926 542.044C898.291 539.299 899.499 535.745 899.297 532.13C899.095 528.515 897.498 525.118 894.843 522.652C896.359 521.296 897.57 519.634 898.396 517.777C899.221 515.919 899.643 513.908 899.633 511.875Z" fill="url(#paint5_linear_143_416)"/>
<path d="M787.546 530.687C787.548 525.488 786.058 520.397 783.252 516.018C780.445 511.639 776.441 508.154 771.712 505.977C766.984 503.8 761.729 503.021 756.57 503.733C751.412 504.445 746.567 506.619 742.607 509.996L693.798 549.319L742.683 589.99L744.008 591.083C749.367 595.332 756.167 597.343 762.98 596.697C769.793 596.05 776.09 592.795 780.552 587.614C785.013 582.433 787.293 575.729 786.912 568.907C786.531 562.085 783.518 555.676 778.507 551.022C781.368 548.463 783.653 545.328 785.211 541.822C786.769 538.317 787.565 534.522 787.546 530.687Z" fill="url(#paint6_linear_143_416)"/>
<path d="M855.12 373.096L856.307 374.079C861.111 377.792 867.16 379.522 873.204 378.913C879.248 378.303 884.828 375.4 888.791 370.802C892.753 366.205 894.797 360.264 894.5 354.206C894.202 348.148 891.587 342.435 887.194 338.246C891.87 333.94 894.676 327.98 895.015 321.638C895.353 315.295 893.195 309.072 889.003 304.294C884.811 299.517 878.915 296.563 872.573 296.063C866.231 295.563 859.944 297.557 855.053 301.618L811.402 336.738L855.12 373.096Z" fill="url(#paint7_linear_143_416)"/>
<path d="M832.505 259.616C835.294 261.769 838.804 262.771 842.312 262.417C845.819 262.062 849.056 260.378 851.356 257.71C853.656 255.043 854.843 251.596 854.672 248.08C854.501 244.565 852.986 241.249 850.438 238.816C853.133 236.311 854.746 232.856 854.933 229.183C855.12 225.511 853.868 221.911 851.441 219.144C849.015 216.378 845.605 214.665 841.934 214.366C838.263 214.068 834.62 215.208 831.777 217.545L806.423 237.941L831.817 259.05L832.505 259.616Z" fill="url(#paint8_linear_143_416)"/>
<path d="M848.776 848.571C851.565 850.724 855.075 851.727 858.582 851.373C862.09 851.018 865.327 849.333 867.627 846.666C869.927 843.998 871.114 840.552 870.943 837.036C870.772 833.521 869.257 830.205 866.709 827.772C869.46 825.279 871.121 821.808 871.333 818.104C871.545 814.401 870.292 810.763 867.843 807.973C865.394 805.184 861.945 803.467 858.24 803.191C854.535 802.916 850.87 804.105 848.034 806.501L822.68 826.896L848.075 847.992L848.763 848.571H848.776Z" fill="url(#paint9_linear_143_416)"/>
</g>
<defs>
<linearGradient id="paint0_linear_143_416" x1="835.899" y1="470.101" x2="-1435.29" y2="477.788" gradientUnits="userSpaceOnUse">
<stop stop-color="#FF0034"/>
<stop offset="1" stop-color="#FF0034" stop-opacity="0"/>
</linearGradient>
<linearGradient id="paint1_linear_143_416" x1="811.317" y1="789.452" x2="599.915" y2="790.368" gradientUnits="userSpaceOnUse">
<stop stop-color="#FF0034"/>
<stop offset="1" stop-color="#FF0034" stop-opacity="0"/>
</linearGradient>
<linearGradient id="paint2_linear_143_416" x1="868.469" y1="639.349" x2="598.602" y2="640.515" gradientUnits="userSpaceOnUse">
<stop stop-color="#FF0034"/>
<stop offset="1" stop-color="#FF0034" stop-opacity="0"/>
</linearGradient>
<linearGradient id="paint3_linear_143_416" x1="838.809" y1="142.2" x2="622.174" y2="143.136" gradientUnits="userSpaceOnUse">
<stop stop-color="#FF0034"/>
<stop offset="1" stop-color="#FF0034" stop-opacity="0"/>
</linearGradient>
<linearGradient id="paint4_linear_143_416" x1="803.47" y1="41.314" x2="586.835" y2="42.2505" gradientUnits="userSpaceOnUse">
<stop stop-color="#FF0034"/>
<stop offset="1" stop-color="#FF0034" stop-opacity="0"/>
</linearGradient>
<linearGradient id="paint5_linear_143_416" x1="899.582" y1="519.749" x2="771.621" y2="520.301" gradientUnits="userSpaceOnUse">
<stop stop-color="#FF0034"/>
<stop offset="1" stop-color="#FF0034" stop-opacity="0"/>
</linearGradient>
<linearGradient id="paint6_linear_143_416" x1="787.45" y1="545.544" x2="545.994" y2="546.586" gradientUnits="userSpaceOnUse">
<stop stop-color="#FF0034"/>
<stop offset="1" stop-color="#FF0034" stop-opacity="0"/>
</linearGradient>
<linearGradient id="paint7_linear_143_416" x1="894.963" y1="333.416" x2="679.523" y2="334.347" gradientUnits="userSpaceOnUse">
<stop stop-color="#FF0034"/>
<stop offset="1" stop-color="#FF0034" stop-opacity="0"/>
</linearGradient>
<linearGradient id="paint8_linear_143_416" x1="854.901" y1="236.028" x2="729.912" y2="236.569" gradientUnits="userSpaceOnUse">
<stop stop-color="#FF0034"/>
<stop offset="1" stop-color="#FF0034" stop-opacity="0"/>
</linearGradient>
<linearGradient id="paint9_linear_143_416" x1="871.306" y1="824.916" x2="745.937" y2="825.459" gradientUnits="userSpaceOnUse">
<stop stop-color="#FF0034"/>
<stop offset="1" stop-color="#FF0034" stop-opacity="0"/>
</linearGradient>
</defs>
</svg>
