<svg width="375" height="488" viewBox="0 0 375 488" fill="none" xmlns="http://www.w3.org/2000/svg">
<mask id="mask0_3_95" style="mask-type:luminance" maskUnits="userSpaceOnUse" x="-75" y="0" width="525" height="488">
<path d="M-74.4155 0.965088L-74.4155 488L449.416 488L449.416 0.965065L-74.4155 0.965088Z" fill="white"/>
</mask>
<g mask="url(#mask0_3_95)">
<path d="M376.007 42.9404C372.947 42.9376 369.951 43.8457 367.373 45.5573C364.795 47.2688 362.743 49.7121 361.462 52.5974C360.18 55.4826 359.721 58.689 360.141 61.8365C360.56 64.984 361.84 67.9405 363.828 70.3559L374.416 83.9957C371.466 84.6486 368.777 86.2187 366.706 88.4973C364.636 90.7759 363.283 93.6549 362.826 96.7515C358.965 98.2475 355.555 100.782 352.946 104.095C351.124 101.7 348.827 99.7403 346.211 98.3481C343.596 96.9559 340.723 96.1638 337.787 96.0258C334.85 95.8878 331.92 96.407 329.194 97.5481C326.468 98.6893 324.01 100.426 321.987 102.64C319.533 99.8049 316.41 97.684 312.925 96.4865C309.44 95.289 305.714 95.0564 302.116 95.8118C298.518 96.5671 295.172 98.2842 292.409 100.793C289.646 103.303 287.561 106.517 286.36 110.119L285.45 110.119C287.386 105.531 287.7 100.38 286.338 95.5738C284.976 90.7679 282.024 86.6155 278.002 83.8478C273.981 81.0802 269.148 79.8748 264.355 80.4442C259.562 81.0135 255.116 83.3211 251.8 86.9603C249.236 83.9981 245.943 81.8181 242.274 80.6544C238.606 79.4908 234.701 79.3877 230.981 80.3562C227.26 81.3247 223.864 83.3282 221.158 86.1511C218.452 88.974 216.539 92.5096 215.623 96.3775C213.046 95.4113 210.296 95.0404 207.566 95.2906C204.836 95.5407 202.192 96.4058 199.817 97.8258C197.915 94.9423 195.103 92.8382 191.868 91.8763L202.619 78.4677C202.848 78.2025 203.064 77.9305 203.274 77.6517C205.77 74.34 206.941 70.1571 206.545 65.9718C206.148 61.7866 204.214 57.9209 201.144 55.1778C198.075 52.4348 194.105 51.0253 190.061 51.2422C186.016 51.459 182.208 53.2855 179.427 56.3422C176.591 52.9992 172.595 50.9601 168.314 50.6718C164.033 50.3836 159.816 51.8697 156.589 54.8046C153.361 57.7394 151.386 61.8834 151.096 66.328C150.806 70.7727 152.225 75.1553 155.042 78.5153L164.7 90.9584C161.802 91.304 159.066 92.5286 156.833 94.4791C154.601 96.4295 152.971 99.0196 152.148 101.926C150.299 102.907 148.625 104.209 147.198 105.774C145.269 103.55 142.877 101.811 140.205 100.688C141.945 95.6335 141.96 90.1108 140.245 85.0463C138.53 79.9817 135.191 75.6833 130.787 72.8715C126.383 70.0597 121.182 68.9056 116.056 69.6026C110.93 70.2996 106.191 72.8054 102.633 76.6999C99.4947 73.0807 95.3741 70.534 90.8141 69.3958C86.2541 68.2576 81.469 68.5814 77.0898 70.3242C72.7106 72.0671 68.9429 75.1473 66.2835 79.1586C63.6241 83.17 62.1979 87.9242 62.193 92.7942C62.193 93.1274 62.193 93.4743 62.193 93.7802C59.7497 92.6339 57.0996 92.0401 54.4184 92.0384C51.7372 92.0367 49.0864 92.627 46.6417 93.7703C44.197 94.9136 42.0144 96.5836 40.2387 98.6696C38.4629 100.756 37.1346 103.21 36.342 105.87C34.6336 103.967 32.5679 102.448 30.2722 101.406C27.9765 100.364 25.4995 99.8223 22.9943 99.8134C20.489 99.8045 18.0086 100.329 15.7061 101.354C13.4035 102.379 11.3278 103.884 9.60695 105.774C7.89599 103.799 5.81659 102.205 3.49484 101.089C1.17308 99.9735 -1.34271 99.3588 -3.90004 99.2825C-6.45738 99.2062 -9.00298 99.67 -11.3826 100.646C-13.7622 101.621 -15.9263 103.089 -17.7436 104.958C-18.5743 102.56 -19.8596 100.359 -21.5233 98.4852C-23.1871 96.6114 -25.1957 95.1029 -27.4304 94.0488C-29.6651 92.9947 -32.0806 92.4164 -34.5341 92.348C-36.9877 92.2797 -39.4296 92.7227 -41.7154 93.651C-42.4034 91.1753 -43.5541 88.8646 -45.102 86.8508C-46.6498 84.837 -48.5645 83.1595 -50.7367 81.9141C-52.9089 80.6687 -55.296 79.8798 -57.7618 79.5923C-60.2276 79.3049 -62.7238 79.5247 -65.1078 80.239C-67.4918 80.9533 -69.717 82.1482 -71.6563 83.7556C-73.5956 85.3629 -75.211 87.3512 -76.4104 89.6069C-77.6097 91.8625 -78.3695 94.3413 -78.6463 96.9019C-78.923 99.4624 -78.7114 102.054 -78.0235 104.53L-75.6205 114.784L-75.6204 556.678L458.838 556.678L458.838 133.543L464.692 102.626C464.764 102.307 464.823 101.987 464.875 101.668C465.522 97.8528 464.719 93.9262 462.634 90.714C460.55 87.5018 457.347 85.2545 453.699 84.4449C450.051 83.6354 446.243 84.3267 443.076 86.3734C439.91 88.4202 437.631 91.6627 436.719 95.4187C433.56 94.2653 430.118 94.2543 426.952 95.3873C423.785 96.5203 421.08 98.731 419.276 101.661C417.516 100.068 415.527 98.77 413.383 97.8122C413.089 94.2049 411.546 90.8306 409.039 88.3149C406.532 85.7993 403.232 84.3129 399.75 84.1316L410.836 70.3083C411.058 70.0499 411.274 69.7779 411.49 69.4992C414.073 66.2388 415.324 62.0583 414.976 57.8522C414.627 53.6462 412.707 49.7489 409.627 46.9942C406.546 44.2395 402.55 42.8464 398.492 43.113C394.435 43.3796 390.64 45.2849 387.918 48.4209C386.415 46.6898 384.577 45.307 382.525 44.3628C380.473 43.4185 378.252 42.9338 376.007 42.9404Z" fill="url(#paint0_linear_3_95)"/>
<path d="M315.354 55.2902C313.14 55.2859 310.97 55.9184 309.104 57.1125C307.237 58.3066 305.752 60.0122 304.825 62.0267C303.897 64.0412 303.567 66.28 303.872 68.4772C304.178 70.6744 305.106 72.7376 306.547 74.4219L323.251 95.1865L340.538 74.389C340.701 74.2054 340.858 74.0152 341.009 73.825C342.737 71.5389 343.53 68.6791 343.228 65.8277C342.925 62.9763 341.549 60.3476 339.38 58.4765C337.211 56.6054 334.411 55.6325 331.551 55.7558C328.691 55.8791 325.985 57.0893 323.985 59.1402C322.898 57.9258 321.567 56.955 320.08 56.2916C318.593 55.6281 316.982 55.2869 315.354 55.2902Z" fill="url(#paint1_linear_3_95)"/>
<path d="M240.592 27.4993C237.766 27.4957 234.998 28.3041 232.617 29.8286C230.236 31.3532 228.341 33.5299 227.157 36.1005C225.974 38.6712 225.551 41.5279 225.94 44.3318C226.328 47.1358 227.511 49.7693 229.349 51.92L250.671 78.4292L272.775 51.8782C272.978 51.6448 273.182 51.4054 273.373 51.16C275.65 48.2455 276.719 44.5642 276.357 40.8809C275.995 37.1976 274.231 33.7955 271.43 31.3815C268.629 28.9674 265.007 27.7269 261.317 27.9177C257.627 28.1086 254.152 29.716 251.615 32.4062C250.226 30.8571 248.526 29.6193 246.627 28.7737C244.727 27.9281 242.671 27.4938 240.592 27.4993Z" fill="url(#paint2_linear_3_95)"/>
<path d="M26.3369 61.5537C26.5006 61.3701 26.6577 61.1733 26.8149 60.9766C28.6466 58.6445 29.509 55.6943 29.2224 52.7409C28.9357 49.7876 27.5221 47.059 25.2762 45.124C23.0303 43.189 20.1255 42.1969 17.1672 42.3546C14.209 42.5123 11.4257 43.8076 9.39752 45.9704C7.33009 43.6056 4.40943 42.1602 1.27811 41.9524C-1.8532 41.7445 -4.93869 42.7911 -7.29961 44.8619C-9.66053 46.9327 -11.1035 49.8582 -11.311 52.9947C-11.5185 56.1311 -10.4736 59.2217 -8.4062 61.5865L8.66416 82.8103L26.3369 61.5537Z" fill="url(#paint3_linear_3_95)"/>
<path d="M186.655 12.4042C185.316 12.4036 184.005 12.7875 182.877 13.5104C181.748 14.2333 180.851 15.2648 180.29 16.4829C179.729 17.701 179.529 19.0546 179.712 20.3834C179.896 21.7121 180.455 22.9603 181.325 23.9802L191.455 36.5532L201.931 23.9606L202.213 23.6196C203.307 22.2389 203.826 20.4874 203.659 18.7324C203.493 16.9774 202.654 15.3552 201.319 14.2059C199.985 13.0566 198.258 12.4694 196.501 12.5676C194.743 12.6658 193.092 13.4417 191.894 14.7325C191.234 13.9956 190.427 13.407 189.524 13.0056C188.621 12.6043 187.643 12.3993 186.655 12.4042Z" fill="url(#paint4_linear_3_95)"/>
<path d="M195.799 66.8859C193.272 66.8849 190.798 67.6093 188.669 68.9733C186.541 70.3373 184.847 72.2838 183.788 74.5823C182.73 76.8808 182.352 79.435 182.698 81.9422C183.044 84.4495 184.1 86.8048 185.742 88.7293L204.856 112.454L224.625 88.6923L225.156 88.0487C227.221 85.4435 228.199 82.1386 227.885 78.827C227.57 75.5154 225.988 72.4543 223.47 70.2856C220.952 68.1169 217.693 67.009 214.377 67.1942C211.061 67.3795 207.945 68.8436 205.684 71.2794C204.44 69.8888 202.916 68.7781 201.212 68.0208C199.508 67.2635 197.663 66.8767 195.799 66.8859Z" fill="url(#paint5_linear_3_95)"/>
<path d="M119.199 34.0402L119.677 33.463C121.482 31.128 122.323 28.1882 122.026 25.2501C121.73 22.3121 120.319 19.6001 118.084 17.674C115.849 15.7478 112.962 14.7545 110.017 14.899C107.072 15.0434 104.296 16.3146 102.26 18.4503C100.166 16.1772 97.2694 14.813 94.1865 14.6487C91.1036 14.4844 88.0785 15.5329 85.7563 17.5706C83.4341 19.6084 81.9984 22.4741 81.7555 25.5569C81.5125 28.6397 82.4815 31.6956 84.4558 34.073L101.526 55.2903L119.199 34.0402Z" fill="url(#paint6_linear_3_95)"/>
<path d="M64.0397 45.0325C65.0863 43.677 65.5736 41.9709 65.4013 40.266C65.229 38.5612 64.41 36.9876 63.1134 35.8697C61.8168 34.7518 60.1414 34.1749 58.4327 34.258C56.7239 34.341 55.1121 35.0777 53.9297 36.3161C52.7118 35.0059 51.0324 34.2221 49.2474 34.1311C47.4625 34.04 45.7123 34.6488 44.3678 35.8283C43.0233 37.0078 42.1903 38.6654 42.0452 40.4497C41.9001 42.234 42.4544 44.0048 43.5906 45.3867L53.5041 57.7104L63.7646 45.367L64.0397 45.0325Z" fill="url(#paint7_linear_3_95)"/>
<path d="M350.314 37.1239C351.36 35.7684 351.848 34.0623 351.675 32.3574C351.503 30.6526 350.684 29.079 349.388 27.9611C348.091 26.8432 346.415 26.2663 344.707 26.3494C342.998 26.4324 341.386 27.1691 340.204 28.4074C338.992 27.07 337.305 26.2628 335.505 26.1597C333.705 26.0566 331.936 26.6658 330.58 27.8562C329.224 29.0466 328.39 30.7229 328.256 32.5238C328.122 34.3248 328.7 36.1062 329.865 37.4846L339.778 49.8083L350.032 37.465L350.314 37.1305L350.314 37.1239Z" fill="url(#paint8_linear_3_95)"/>
</g>
<defs>
<linearGradient id="paint0_linear_3_95" x1="166.35" y1="43.3994" x2="170.366" y2="1187.89" gradientUnits="userSpaceOnUse">
<stop stop-color="#FF0034"/>
<stop offset="1" stop-color="#FF0034"/>
</linearGradient>
<linearGradient id="paint1_linear_3_95" x1="321.577" y1="55.3314" x2="322.023" y2="158.088" gradientUnits="userSpaceOnUse">
<stop stop-color="#FF0034"/>
<stop offset="1" stop-color="#FF0034" stop-opacity="0"/>
</linearGradient>
<linearGradient id="paint2_linear_3_95" x1="248.617" y1="27.5519" x2="249.183" y2="158.726" gradientUnits="userSpaceOnUse">
<stop stop-color="#FF0034"/>
<stop offset="1" stop-color="#FF0034" stop-opacity="0"/>
</linearGradient>
<linearGradient id="paint3_linear_3_95" x1="6.96731" y1="41.9686" x2="7.42252" y2="147.268" gradientUnits="userSpaceOnUse">
<stop stop-color="#FF0034"/>
<stop offset="1" stop-color="#FF0034" stop-opacity="0"/>
</linearGradient>
<linearGradient id="paint4_linear_3_95" x1="190.482" y1="12.429" x2="190.751" y2="74.6271" gradientUnits="userSpaceOnUse">
<stop stop-color="#FF0034"/>
<stop offset="1" stop-color="#FF0034" stop-opacity="0"/>
</linearGradient>
<linearGradient id="paint5_linear_3_95" x1="203.021" y1="66.9328" x2="203.527" y2="184.297" gradientUnits="userSpaceOnUse">
<stop stop-color="#FF0034"/>
<stop offset="1" stop-color="#FF0034" stop-opacity="0"/>
</linearGradient>
<linearGradient id="paint6_linear_3_95" x1="99.9114" y1="14.6739" x2="100.364" y2="119.393" gradientUnits="userSpaceOnUse">
<stop stop-color="#FF0034"/>
<stop offset="1" stop-color="#FF0034" stop-opacity="0"/>
</linearGradient>
<linearGradient id="paint7_linear_3_95" x1="52.5745" y1="34.1465" x2="52.8374" y2="94.9001" gradientUnits="userSpaceOnUse">
<stop stop-color="#FF0034"/>
<stop offset="1" stop-color="#FF0034" stop-opacity="0"/>
</linearGradient>
<linearGradient id="paint8_linear_3_95" x1="338.816" y1="26.1729" x2="339.08" y2="87.1109" gradientUnits="userSpaceOnUse">
<stop stop-color="#FF0034"/>
<stop offset="1" stop-color="#FF0034" stop-opacity="0"/>
</linearGradient>
</defs>
</svg>
